<svg xmlns="http://www.w3.org/2000/svg" width="16" height="16"><path style="text-indent:0;text-align:start;line-height:normal;text-transform:none;block-progression:tb" d="M8 1.002a6.995 6.995 0 0 0-3.5.937 7.008 7.008 0 0 0-2.563 9.563 7.008 7.008 0 0 0 9.563 2.562 7.008 7.008 0 0 0 2.563-9.562l-.25-.434-2.39 1.38.5.864 1.434-.828c1.307 2.794.365 6.142-2.357 7.713a5.991 5.991 0 0 1-8.195-2.195A5.993 5.993 0 0 1 5 2.805a5.997 5.997 0 0 1 6 0l.5-.866A6.995 6.995 0 0 0 8 1.002zm0 4c-1.65 0-3 1.349-3 3 0 1.65 1.35 3 3 3s3-1.35 3-3c0-1.651-1.35-3-3-3z" color="#000" font-family="sans-serif" font-weight="400" overflow="visible"/></svg>